<svg xmlns="http://www.w3.org/2000/svg" viewBox="0 0 468.92 356.76"><defs><style>.cls-1{fill:#a9a295;}.cls-2{fill:#042f5f;}.cls-3{fill:#f26f21;}.cls-4{fill:#48658a;}.cls-5{fill:#9d4c3d;}</style></defs><g id="Calque_2" data-name="Calque 2"><path class="cls-1" d="M138.28,132.55a6.54,6.54,0,0,0-3.1-3.65,1.19,1.19,0,0,0-.44-.1l-.22,0c-1.92.52-4.17,3.45-6.88,1.89a.8.8,0,0,1-.35-.4c-3.1-6.88,7.09-13.19,13.47-8.17,10.9,5.78,11.39,51.84,16.88,61.41.47.83,2.18,3.57,2.14,2.62-.28-7.52,2-13.82,6.59-16.4a10,10,0,0,1,3.26-1.14.93.93,0,0,0,.6-.38c3.45-4.89,8.05-3.47,6.25,1.78a.9.9,0,0,0,.42,1.09l.54.31a.92.92,0,0,0,1.24-.37c1-1.83,4.17-2,6.2.72,4.05,4,4,15.07,4.09,18.63a.9.9,0,0,0,.26.62c2.89,3,3.11,6.59,1.66,8a4.15,4.15,0,0,1-3.36.74.9.9,0,0,0-.94.52c-1.06,2.33-3.54,3.19-5.38,5.18a.9.9,0,0,0,.07,1.31c11,9.15,9.47,17.46,15.11,36.08,5.23,17.26,8.2,21.56,10.47,44.05a.91.91,0,0,1,0,.17c-.83,11.81-10.16,13.66-6.46,5.61,4.65-10.11-9.74-5.33-5.19-10.06,5.65-5.89.33-13.84-2.88-20.94,0,0,0,0,0-.05-6.68-12.73-8.19-15.55-12.73-31.06,0,0-.05,0-.06,0-.78,2.35-4.22,6.6-5.88,9.78a5.68,5.68,0,0,0,.49,6c7.1,9.51,17.46,24.46,11.67,30.47-8.12,8.42-17.42,11.51-17.14,14.08.82,7.37-2.53,18.47-12.29,17-3.83-.58-3.3-5.51-.76-8.57a.64.64,0,0,0,.1-.13c2.41-4.21-.86-6.27,2.15-10.34l.09-.11c8-8.05,12.45-13.11,12.56-14.85.25-3.91-5.14-6.33-9.5-6.72a4,4,0,0,0-4.31,3.54c-1.05,10.31-5.44,16.89-11.73,25.91a45.42,45.42,0,0,0-6.14,14c-1.87,6.76-2.25,17.88,3.18,21.17a8.34,8.34,0,0,0,4.5,1c3.93-.48,5.14-4,8.37-3.2l.15,0c8.58,3.33.6,9.91-7.1,11a16.21,16.21,0,0,1-9.1-1.33c-4.61-2.41-6.34-6.16-7.45-9.09-1.58-4.15-2.81-11.48-.15-21.65,4-15.35,8.89-17.54,13.93-27.5,13.88-27.47-19-41.05-17.89-16.73a.77.77,0,0,0,0,.15c1.4,6.88-3.27,1.79-7,5.2-1.32,1.4-.73,2.84-1.33,7.66-1.09,12-15.41-1.46-8.82-13,3.67-6.43,12.74-4.64,10.33-13.18a.57.57,0,0,1,0-.18c-.57-7.12,2.61-16.79,8.13-19s10.47,3.44,13.58.74c1.65-1.43,1.88-6.89,1.88-15.12,0-12.46,3.39-13.61,2.83-18.54,0-.07-6.34-23.22-5.37-39.26A72.27,72.27,0,0,0,138.28,132.55Z"/><rect class="cls-2" x="270.3" y="52.76" width="16.48" height="100.51" rx="3.46" transform="matrix(0.76, -0.65, 0.65, 0.76, 0.58, 207.56)"/><path class="cls-2" d="M112.77,81.12a3.46,3.46,0,0,1,3.46,3.45v17.15a28.85,28.85,0,0,0,20.51,27.62,3.47,3.47,0,0,1,2.41,3.95l-1.77,9.46a3.45,3.45,0,0,1-4.32,2.69,45.34,45.34,0,0,1-33.32-43.72V84.57a3.46,3.46,0,0,1,3.45-3.45"/><path class="cls-2" d="M278.55,295.57c-36.15,0-65.7-27.16-65.7-65.69,0-38.36,29.55-65.51,65.7-65.51,36.52,0,65.51,27.15,65.51,65.51C344.06,268.41,314.88,295.57,278.55,295.57Zm0-22.94c23.12,0,39.09-16.7,39.09-42.75s-16-42.39-39.09-42.39c-23.31,0-39.27,16.33-39.27,42.39S255.24,272.63,278.55,272.63Z"/><path class="cls-2" d="M400.94,295.57c-25.17,0-44.92-12.48-47.29-34.33a3.46,3.46,0,0,1,3.44-3.84h20.83a3.46,3.46,0,0,1,3.39,2.79c1.68,8.7,8.27,14.28,19.08,14.28,12.11,0,19.27-6.42,19.27-15.6,0-27.71-66.06-11-65.88-57.44,0-23.12,18.72-37.06,45.15-37.06,24.69,0,42.07,11.86,45.41,32.52a3.45,3.45,0,0,1-3.42,4H419.51a3.5,3.5,0,0,1-3.38-2.72c-1.69-7.1-8.15-12.34-17.94-12.51-10.09-.37-17.62,4.59-17.62,15,0,25.69,65.7,11.38,65.7,56.52C446.27,277.4,430.12,295.57,400.94,295.57Z"/><path class="cls-2" d="M55.62,59.74H26.18a3.52,3.52,0,0,0-3.52,3.52V72.7a3.52,3.52,0,0,0,3.52,3.52H72.71a3.53,3.53,0,0,0,3.52-3.52V63.18a3.44,3.44,0,0,0-3.45-3.44Z"/><path class="cls-2" d="M55.62,59.74A28.88,28.88,0,0,1,76.14,32.11a3.45,3.45,0,0,0,2.41-3.94l-1.77-9.46A3.47,3.47,0,0,0,72.45,16,45.34,45.34,0,0,0,39.14,59.74v83.09a3.46,3.46,0,0,0,3.45,3.45h9.58a3.45,3.45,0,0,0,3.45-3.45V76.22"/><rect class="cls-3" x="184.13" y="283.89" width="16.48" height="16.48" rx="3.45" transform="translate(-144.42 386.56) rotate(-72.3)"/><path class="cls-2" d="M234.07,94.77a43.28,43.28,0,0,0-85,0,43.91,43.91,0,0,0,0,16.48,43.27,43.27,0,0,0,75.67,19.52,41.46,41.46,0,0,0,2.66-3.51,3.47,3.47,0,0,0-1.18-5l-8.42-4.68a3.44,3.44,0,0,0-4.46,1c-.38.52-.77,1-1.18,1.52a26.79,26.79,0,0,1-46.1-8.88h65a3.49,3.49,0,0,0,3.48-3.07,44.16,44.16,0,0,0,.31-5.17A43,43,0,0,0,234.07,94.77Zm-68,0a26.8,26.8,0,0,1,51,0Z"/><path class="cls-4" d="M286.7,217v9.57a3.45,3.45,0,0,1-3.46,3.45h-9.57a3.45,3.45,0,0,1-3.46-3.45V217a3.46,3.46,0,0,1,3.46-3.46h9.57A3.46,3.46,0,0,1,286.7,217Z"/><path class="cls-5" d="M286.7,236.72v9.57a3.45,3.45,0,0,1-3.46,3.45h-9.57a3.45,3.45,0,0,1-3.46-3.45v-9.57a3.45,3.45,0,0,1,3.46-3.46h9.57A3.45,3.45,0,0,1,286.7,236.72Z"/><path class="cls-3" d="M286.7,256.4V266a3.46,3.46,0,0,1-3.46,3.46h-9.57a3.46,3.46,0,0,1-3.46-3.46V256.4a3.46,3.46,0,0,1,3.46-3.46h9.57A3.46,3.46,0,0,1,286.7,256.4Z"/><path class="cls-2" d="M253.77,144.18l51.68-59.64a3.22,3.22,0,0,0-.7-4.47l-7.23-6.26a3.23,3.23,0,0,0-4.52-.07l-51.69,59.65a3.22,3.22,0,0,0,.71,4.46l7.23,6.27A3.22,3.22,0,0,0,253.77,144.18Z"/><path class="cls-3" d="M318,70.1l-6.27,7.24,0,0a3.45,3.45,0,0,1-4.85.33l-4.18-3.62-3.06-2.65a3.46,3.46,0,0,1-.35-4.88l6.27-7.23a3.46,3.46,0,0,1,4.88-.35l7.23,6.27A3.45,3.45,0,0,1,318,70.1Z"/><path class="cls-4" d="M116.21,25.46V35a3.46,3.46,0,0,1-3.46,3.46h-9.57A3.46,3.46,0,0,1,99.72,35V25.46A3.45,3.45,0,0,1,103.18,22h9.57A3.45,3.45,0,0,1,116.21,25.46Z"/><path class="cls-5" d="M116.21,45.15v9.57a3.46,3.46,0,0,1-3.46,3.46h-9.57a3.46,3.46,0,0,1-3.46-3.46V45.15a3.46,3.46,0,0,1,3.46-3.46h9.57A3.46,3.46,0,0,1,116.21,45.15Z"/><path class="cls-3" d="M116.21,64.83v9.58a3.45,3.45,0,0,1-3.46,3.45h-9.57a3.45,3.45,0,0,1-3.46-3.45V64.83a3.46,3.46,0,0,1,3.46-3.45h9.57A3.46,3.46,0,0,1,116.21,64.83Z"/></g></svg>