<svg xmlns="http://www.w3.org/2000/svg" viewBox="0 0 572.14 460.26"><defs><style>.cls-1,.cls-3{fill:#042f5f;}.cls-2,.cls-7{fill:#a9a295;}.cls-2,.cls-3,.cls-4,.cls-5,.cls-6{stroke:#fff;stroke-miterlimit:10;stroke-width:32px;}.cls-4,.cls-8{fill:#f26f21;}.cls-5,.cls-9{fill:#48658a;}.cls-10,.cls-6{fill:#9d4c3d;}.cls-11{fill:#fff;}</style></defs><g id="Calque_2" data-name="Calque 2"><rect class="cls-1" width="572.14" height="460.26"/><path class="cls-2" d="M189.89,184.3a6.53,6.53,0,0,0-3.1-3.64,1.1,1.1,0,0,0-.44-.11l-.22,0c-1.92.53-4.18,3.45-6.88,1.89a.9.9,0,0,1-.36-.39c-3.09-6.89,7.1-13.2,13.47-8.18,10.9,5.78,11.4,51.84,16.89,61.41.47.83,2.17,3.57,2.14,2.62-.28-7.52,2-13.82,6.59-16.4a10,10,0,0,1,3.26-1.14.93.93,0,0,0,.6-.38c3.45-4.89,8-3.47,6.25,1.78a.93.93,0,0,0,.41,1.1l.55.3a.92.92,0,0,0,1.24-.37c1-1.83,4.17-2,6.2.73,4,4,4,15.06,4.09,18.62a.9.9,0,0,0,.26.62c2.88,3,3.1,6.59,1.66,8a4.08,4.08,0,0,1-3.36.74.9.9,0,0,0-.94.52c-1.07,2.33-3.54,3.2-5.39,5.18a.9.9,0,0,0,.08,1.31c11,9.15,9.46,17.46,15.11,36.08,5.23,17.27,8.2,21.57,10.47,44.05v.17c-.82,11.81-10.15,13.67-6.45,5.61,4.65-10.11-9.74-5.32-5.2-10.06,5.66-5.88.33-13.84-2.87-20.94l0,0c-6.68-12.74-8.2-15.56-12.73-31.07h-.07c-.77,2.35-4.21,6.6-5.87,9.78a5.7,5.7,0,0,0,.48,6c7.11,9.51,17.47,24.46,11.67,30.47-8.11,8.42-17.41,11.51-17.13,14.08.82,7.38-2.53,18.47-12.3,17-3.82-.58-3.29-5.51-.75-8.57l.09-.13c2.42-4.21-.85-6.27,2.16-10.34l.09-.11c8-8,12.45-13.11,12.56-14.85.25-3.91-5.15-6.33-9.51-6.72a4,4,0,0,0-4.3,3.54c-1,10.32-5.44,16.89-11.74,25.92a45.58,45.58,0,0,0-6.13,13.95c-1.88,6.76-2.26,17.88,3.17,21.17a8.37,8.37,0,0,0,4.51,1c3.92-.48,5.14-4,8.37-3.2l.15,0c8.58,3.33.59,9.92-7.1,11a16.3,16.3,0,0,1-9.1-1.32c-4.61-2.42-6.34-6.17-7.46-9.1-1.58-4.15-2.8-11.48-.15-21.65,4-15.35,8.9-17.54,13.93-27.5,13.89-27.47-19-41.05-17.88-16.73l0,.15c1.4,6.89-3.27,1.79-7,5.2-1.32,1.4-.73,2.84-1.33,7.66-1.1,12-15.42-1.45-8.82-13,3.66-6.44,12.73-4.65,10.33-13.19l0-.18c-.56-7.12,2.61-16.79,8.13-19s10.48,3.44,13.59.74c1.65-1.43,1.87-6.89,1.88-15.12,0-12.46,3.39-13.61,2.83-18.53,0-.08-6.34-23.23-5.37-39.27A72.27,72.27,0,0,0,189.89,184.3Z"/><path class="cls-3" d="M354.57,195.53l-61.29-70.74a3.45,3.45,0,0,1,.34-4.87l7.24-6.27a3.45,3.45,0,0,1,4.87.34L367,184.73a3.45,3.45,0,0,1-.35,4.87l-7.24,6.27A3.45,3.45,0,0,1,354.57,195.53Z"/><path class="cls-3" d="M164.37,132.87a3.46,3.46,0,0,1,3.46,3.45v17.15a28.88,28.88,0,0,0,20.52,27.63,3.45,3.45,0,0,1,2.41,3.94L189,194.5a3.47,3.47,0,0,1-4.33,2.69,45.34,45.34,0,0,1-33.31-43.72V136.32a3.45,3.45,0,0,1,3.45-3.45"/><path class="cls-3" d="M330.16,347.32c-36.15,0-65.7-27.16-65.7-65.69,0-38.35,29.55-65.51,65.7-65.51,36.51,0,65.51,27.16,65.51,65.51C395.67,320.16,366.49,347.32,330.16,347.32Zm0-22.94c23.12,0,39.08-16.69,39.08-42.75s-16-42.39-39.08-42.39c-23.31,0-39.27,16.33-39.27,42.39S306.85,324.38,330.16,324.38Z"/><path class="cls-3" d="M452.55,347.32c-25.17,0-44.92-12.48-47.29-34.33a3.46,3.46,0,0,1,3.44-3.84h20.82a3.45,3.45,0,0,1,3.39,2.79c1.69,8.7,8.28,14.28,19.09,14.28,12.11,0,19.27-6.42,19.27-15.6,0-27.71-66.06-11-65.88-57.44,0-23.12,18.72-37.06,45.14-37.06,24.7,0,42.08,11.86,45.42,32.52a3.45,3.45,0,0,1-3.42,4H471.12a3.49,3.49,0,0,1-3.38-2.72c-1.69-7.1-8.15-12.34-17.94-12.51-10.09-.36-17.62,4.59-17.62,15,0,25.69,65.7,11.38,65.7,56.52C497.88,329.16,481.73,347.32,452.55,347.32Z"/><path class="cls-3" d="M107.23,111.49H77.79A3.53,3.53,0,0,0,74.26,115v9.44A3.52,3.52,0,0,0,77.79,128h46.52a3.52,3.52,0,0,0,3.53-3.52v-9.52a3.45,3.45,0,0,0-3.45-3.44Z"/><path class="cls-3" d="M107.23,111.49a28.85,28.85,0,0,1,20.51-27.62,3.46,3.46,0,0,0,2.42-4l-1.77-9.46a3.47,3.47,0,0,0-4.33-2.69,45.34,45.34,0,0,0-33.31,43.72v83.09A3.45,3.45,0,0,0,94.2,198h9.58a3.46,3.46,0,0,0,3.45-3.45V128"/><rect class="cls-4" x="235.74" y="335.64" width="16.48" height="16.48" rx="3.45" transform="translate(-157.8 471.74) rotate(-72.3)"/><path class="cls-3" d="M285.68,146.52A43.08,43.08,0,1,0,279,179a3.47,3.47,0,0,0-1.17-5l-8.42-4.68a3.44,3.44,0,0,0-4.46,1c-.38.52-.77,1-1.18,1.52A26.79,26.79,0,0,1,217.7,163h65a3.49,3.49,0,0,0,3.48-3.07,44,44,0,0,0,.3-5.17A43,43,0,0,0,285.68,146.52Zm-68,0a26.8,26.8,0,0,1,51,0Z"/><path class="cls-5" d="M338.31,268.78v9.57a3.45,3.45,0,0,1-3.46,3.45h-9.57a3.45,3.45,0,0,1-3.46-3.45v-9.57a3.46,3.46,0,0,1,3.46-3.46h9.57A3.46,3.46,0,0,1,338.31,268.78Z"/><path class="cls-6" d="M338.31,288.47V298a3.45,3.45,0,0,1-3.46,3.45h-9.57a3.45,3.45,0,0,1-3.46-3.45v-9.57a3.45,3.45,0,0,1,3.46-3.46h9.57A3.45,3.45,0,0,1,338.31,288.47Z"/><path class="cls-4" d="M338.31,308.15v9.57a3.46,3.46,0,0,1-3.46,3.46h-9.57a3.46,3.46,0,0,1-3.46-3.46v-9.57a3.45,3.45,0,0,1,3.46-3.45h9.57A3.45,3.45,0,0,1,338.31,308.15Z"/><path class="cls-3" d="M305.38,195.94l51.68-59.65a3.21,3.21,0,0,0-.7-4.46l-7.24-6.27a3.22,3.22,0,0,0-4.52-.06l-51.68,59.64a3.22,3.22,0,0,0,.7,4.46l7.24,6.27A3.23,3.23,0,0,0,305.38,195.94Z"/><path class="cls-4" d="M369.64,121.85l-6.27,7.24,0,0a3.47,3.47,0,0,1-4.86.33l-4.17-3.62-3.06-2.65a3.45,3.45,0,0,1-.35-4.88l6.27-7.23a3.45,3.45,0,0,1,4.87-.35l7.24,6.27A3.45,3.45,0,0,1,369.64,121.85Z"/><path class="cls-5" d="M167.81,77.21v9.58a3.46,3.46,0,0,1-3.45,3.45h-9.58a3.45,3.45,0,0,1-3.45-3.45V77.21a3.44,3.44,0,0,1,3.45-3.45h9.58A3.45,3.45,0,0,1,167.81,77.21Z"/><path class="cls-6" d="M167.81,96.9v9.57a3.46,3.46,0,0,1-3.45,3.46h-9.58a3.45,3.45,0,0,1-3.45-3.46V96.9a3.45,3.45,0,0,1,3.45-3.46h9.58A3.46,3.46,0,0,1,167.81,96.9Z"/><path class="cls-4" d="M167.81,116.59v9.57a3.45,3.45,0,0,1-3.45,3.45h-9.58a3.44,3.44,0,0,1-3.45-3.45v-9.57a3.45,3.45,0,0,1,3.45-3.46h9.58A3.46,3.46,0,0,1,167.81,116.59Z"/><path class="cls-7" d="M189.89,184.3a6.53,6.53,0,0,0-3.1-3.64,1.1,1.1,0,0,0-.44-.11l-.22,0c-1.92.53-4.18,3.45-6.88,1.89a.9.9,0,0,1-.36-.39c-3.09-6.89,7.1-13.2,13.47-8.18,10.9,5.78,11.4,51.84,16.89,61.41.47.83,2.17,3.57,2.14,2.62-.28-7.52,2-13.82,6.59-16.4a10,10,0,0,1,3.26-1.14.93.93,0,0,0,.6-.38c3.45-4.89,8-3.47,6.25,1.78a.93.93,0,0,0,.41,1.1l.55.3a.92.92,0,0,0,1.24-.37c1-1.83,4.17-2,6.2.73,4,4,4,15.06,4.09,18.62a.9.9,0,0,0,.26.62c2.88,3,3.1,6.59,1.66,8a4.08,4.08,0,0,1-3.36.74.9.9,0,0,0-.94.52c-1.07,2.33-3.54,3.2-5.39,5.18a.9.9,0,0,0,.08,1.31c11,9.15,9.46,17.46,15.11,36.08,5.23,17.27,8.2,21.57,10.47,44.05v.17c-.82,11.81-10.15,13.67-6.45,5.61,4.65-10.11-9.74-5.32-5.2-10.06,5.66-5.88.33-13.84-2.87-20.94l0,0c-6.68-12.74-8.2-15.56-12.73-31.07h-.07c-.77,2.35-4.21,6.6-5.87,9.78a5.7,5.7,0,0,0,.48,6c7.11,9.51,17.47,24.46,11.67,30.47-8.11,8.42-17.41,11.51-17.13,14.08.82,7.38-2.53,18.47-12.3,17-3.82-.58-3.29-5.51-.75-8.57l.09-.13c2.42-4.21-.85-6.27,2.16-10.34l.09-.11c8-8,12.45-13.11,12.56-14.85.25-3.91-5.15-6.33-9.51-6.72a4,4,0,0,0-4.3,3.54c-1,10.32-5.44,16.89-11.74,25.92a45.58,45.58,0,0,0-6.13,13.95c-1.88,6.76-2.26,17.88,3.17,21.17a8.37,8.37,0,0,0,4.51,1c3.92-.48,5.14-4,8.37-3.2l.15,0c8.58,3.33.59,9.92-7.1,11a16.3,16.3,0,0,1-9.1-1.32c-4.61-2.42-6.34-6.17-7.46-9.1-1.58-4.15-2.8-11.48-.15-21.65,4-15.35,8.9-17.54,13.93-27.5,13.89-27.47-19-41.05-17.88-16.73l0,.15c1.4,6.89-3.27,1.79-7,5.2-1.32,1.4-.73,2.84-1.33,7.66-1.1,12-15.42-1.45-8.82-13,3.66-6.44,12.73-4.65,10.33-13.19l0-.18c-.56-7.12,2.61-16.79,8.13-19s10.48,3.44,13.59.74c1.65-1.43,1.87-6.89,1.88-15.12,0-12.46,3.39-13.61,2.83-18.53,0-.08-6.34-23.23-5.37-39.27A72.27,72.27,0,0,0,189.89,184.3Z"/><path class="cls-1" d="M354.57,195.53l-61.29-70.74a3.45,3.45,0,0,1,.34-4.87l7.24-6.27a3.45,3.45,0,0,1,4.87.34L367,184.73a3.45,3.45,0,0,1-.35,4.87l-7.24,6.27A3.45,3.45,0,0,1,354.57,195.53Z"/><path class="cls-1" d="M164.37,132.87a3.46,3.46,0,0,1,3.46,3.45v17.15a28.88,28.88,0,0,0,20.52,27.63,3.45,3.45,0,0,1,2.41,3.94L189,194.5a3.47,3.47,0,0,1-4.33,2.69,45.34,45.34,0,0,1-33.31-43.72V136.32a3.45,3.45,0,0,1,3.45-3.45"/><path class="cls-1" d="M330.16,347.32c-36.15,0-65.7-27.16-65.7-65.69,0-38.35,29.55-65.51,65.7-65.51,36.51,0,65.51,27.16,65.51,65.51C395.67,320.16,366.49,347.32,330.16,347.32Zm0-22.94c23.12,0,39.08-16.69,39.08-42.75s-16-42.39-39.08-42.39c-23.31,0-39.27,16.33-39.27,42.39S306.85,324.38,330.16,324.38Z"/><path class="cls-1" d="M452.55,347.32c-25.17,0-44.92-12.48-47.29-34.33a3.46,3.46,0,0,1,3.44-3.84h20.82a3.45,3.45,0,0,1,3.39,2.79c1.69,8.7,8.28,14.28,19.09,14.28,12.11,0,19.27-6.42,19.27-15.6,0-27.71-66.06-11-65.88-57.44,0-23.12,18.72-37.06,45.14-37.06,24.7,0,42.08,11.86,45.42,32.52a3.45,3.45,0,0,1-3.42,4H471.12a3.49,3.49,0,0,1-3.38-2.72c-1.69-7.1-8.15-12.34-17.94-12.51-10.09-.36-17.62,4.59-17.62,15,0,25.69,65.7,11.38,65.7,56.52C497.88,329.16,481.73,347.32,452.55,347.32Z"/><path class="cls-1" d="M107.23,111.49H77.79A3.53,3.53,0,0,0,74.26,115v9.44A3.52,3.52,0,0,0,77.79,128h46.52a3.52,3.52,0,0,0,3.53-3.52v-9.52a3.45,3.45,0,0,0-3.45-3.44Z"/><path class="cls-1" d="M107.23,111.49a28.85,28.85,0,0,1,20.51-27.62,3.46,3.46,0,0,0,2.42-4l-1.77-9.46a3.47,3.47,0,0,0-4.33-2.69,45.34,45.34,0,0,0-33.31,43.72v83.09A3.45,3.45,0,0,0,94.2,198h9.58a3.46,3.46,0,0,0,3.45-3.45V128"/><rect class="cls-8" x="235.74" y="335.64" width="16.48" height="16.48" rx="3.45" transform="translate(-157.8 471.74) rotate(-72.3)"/><path class="cls-1" d="M285.68,146.52A43.08,43.08,0,1,0,279,179a3.47,3.47,0,0,0-1.17-5l-8.42-4.68a3.44,3.44,0,0,0-4.46,1c-.38.52-.77,1-1.18,1.52A26.79,26.79,0,0,1,217.7,163h65a3.49,3.49,0,0,0,3.48-3.07,44,44,0,0,0,.3-5.17A43,43,0,0,0,285.68,146.52Zm-68,0a26.8,26.8,0,0,1,51,0Z"/><path class="cls-9" d="M338.31,268.78v9.57a3.45,3.45,0,0,1-3.46,3.45h-9.57a3.45,3.45,0,0,1-3.46-3.45v-9.57a3.46,3.46,0,0,1,3.46-3.46h9.57A3.46,3.46,0,0,1,338.31,268.78Z"/><path class="cls-10" d="M338.31,288.47V298a3.45,3.45,0,0,1-3.46,3.45h-9.57a3.45,3.45,0,0,1-3.46-3.45v-9.57a3.45,3.45,0,0,1,3.46-3.46h9.57A3.45,3.45,0,0,1,338.31,288.47Z"/><path class="cls-8" d="M338.31,308.15v9.57a3.46,3.46,0,0,1-3.46,3.46h-9.57a3.46,3.46,0,0,1-3.46-3.46v-9.57a3.45,3.45,0,0,1,3.46-3.45h9.57A3.45,3.45,0,0,1,338.31,308.15Z"/><path class="cls-1" d="M305.38,195.94l51.68-59.65a3.21,3.21,0,0,0-.7-4.46l-7.24-6.27a3.22,3.22,0,0,0-4.52-.06l-51.68,59.64a3.22,3.22,0,0,0,.7,4.46l7.24,6.27A3.23,3.23,0,0,0,305.38,195.94Z"/><path class="cls-8" d="M369.64,121.85l-6.27,7.24,0,0a3.47,3.47,0,0,1-4.86.33l-4.17-3.62-3.06-2.65a3.45,3.45,0,0,1-.35-4.88l6.27-7.23a3.45,3.45,0,0,1,4.87-.35l7.24,6.27A3.45,3.45,0,0,1,369.64,121.85Z"/><path class="cls-9" d="M167.81,77.21v9.58a3.46,3.46,0,0,1-3.45,3.45h-9.58a3.45,3.45,0,0,1-3.45-3.45V77.21a3.44,3.44,0,0,1,3.45-3.45h9.58A3.45,3.45,0,0,1,167.81,77.21Z"/><path class="cls-10" d="M167.81,96.9v9.57a3.46,3.46,0,0,1-3.45,3.46h-9.58a3.45,3.45,0,0,1-3.45-3.46V96.9a3.45,3.45,0,0,1,3.45-3.46h9.58A3.46,3.46,0,0,1,167.81,96.9Z"/><path class="cls-8" d="M167.81,116.59v9.57a3.45,3.45,0,0,1-3.45,3.45h-9.58a3.44,3.44,0,0,1-3.45-3.45v-9.57a3.45,3.45,0,0,1,3.45-3.46h9.58A3.46,3.46,0,0,1,167.81,116.59Z"/><rect class="cls-11" x="320.61" y="188.98" width="20.43" height="16.85"/></g></svg>